<svg width="10" height="11" viewBox="0 0 10 11" fill="none" xmlns="http://www.w3.org/2000/svg">
<path d="M2.89062 6.625H2.10938C1.98047 6.625 1.875 6.51953 1.875 6.39062V5.60938C1.875 5.48047 1.98047 5.375 2.10938 5.375H2.89062C3.01953 5.375 3.125 5.48047 3.125 5.60938V6.39062C3.125 6.51953 3.01953 6.625 2.89062 6.625ZM5 6.39062V5.60938C5 5.48047 4.89453 5.375 4.76562 5.375H3.98438C3.85547 5.375 3.75 5.48047 3.75 5.60938V6.39062C3.75 6.51953 3.85547 6.625 3.98438 6.625H4.76562C4.89453 6.625 5 6.51953 5 6.39062ZM6.875 6.39062V5.60938C6.875 5.48047 6.76953 5.375 6.64062 5.375H5.85938C5.73047 5.375 5.625 5.48047 5.625 5.60938V6.39062C5.625 6.51953 5.73047 6.625 5.85938 6.625H6.64062C6.76953 6.625 6.875 6.51953 6.875 6.39062ZM5 8.26562V7.48438C5 7.35547 4.89453 7.25 4.76562 7.25H3.98438C3.85547 7.25 3.75 7.35547 3.75 7.48438V8.26562C3.75 8.39453 3.85547 8.5 3.98438 8.5H4.76562C4.89453 8.5 5 8.39453 5 8.26562ZM3.125 8.26562V7.48438C3.125 7.35547 3.01953 7.25 2.89062 7.25H2.10938C1.98047 7.25 1.875 7.35547 1.875 7.48438V8.26562C1.875 8.39453 1.98047 8.5 2.10938 8.5H2.89062C3.01953 8.5 3.125 8.39453 3.125 8.26562ZM6.875 8.26562V7.48438C6.875 7.35547 6.76953 7.25 6.64062 7.25H5.85938C5.73047 7.25 5.625 7.35547 5.625 7.48438V8.26562C5.625 8.39453 5.73047 8.5 5.85938 8.5H6.64062C6.76953 8.5 6.875 8.39453 6.875 8.26562ZM8.75 3.1875V10.0625C8.75 10.5801 8.33008 11 7.8125 11H0.9375C0.419922 11 0 10.5801 0 10.0625V3.1875C0 2.66992 0.419922 2.25 0.9375 2.25H1.875V1.23438C1.875 1.10547 1.98047 1 2.10938 1H2.89062C3.01953 1 3.125 1.10547 3.125 1.23438V2.25H5.625V1.23438C5.625 1.10547 5.73047 1 5.85938 1H6.64062C6.76953 1 6.875 1.10547 6.875 1.23438V2.25H7.8125C8.33008 2.25 8.75 2.66992 8.75 3.1875ZM7.8125 9.94531V4.125H0.9375V9.94531C0.9375 10.0098 0.990234 10.0625 1.05469 10.0625H7.69531C7.75977 10.0625 7.8125 10.0098 7.8125 9.94531Z" fill="#383838"/>
</svg>
