<svg width="14" height="14" viewBox="0 0 14 14" fill="none" xmlns="http://www.w3.org/2000/svg">
<g clip-path="url(#clip0_168_4865)">
<path d="M13.6716 4.8125H12.0345L11.5795 3.675C11.1119 2.50551 9.99603 1.75 8.73631 1.75H5.26366C4.0042 1.75 2.88803 2.50551 2.42018 3.675L1.96518 4.8125H0.32839C0.114836 4.8125 -0.0418438 5.0132 0.0101093 5.2202L0.174172 5.87645C0.210539 6.02246 0.341788 6.125 0.492452 6.125H1.04124C0.674015 6.44574 0.437491 6.91195 0.437491 7.4375V8.75C0.437491 9.19078 0.605929 9.58863 0.874991 9.89652V11.375C0.874991 11.8582 1.26683 12.25 1.74999 12.25H2.62499C3.10815 12.25 3.49999 11.8582 3.49999 11.375V10.5H10.5V11.375C10.5 11.8582 10.8918 12.25 11.375 12.25H12.25C12.7331 12.25 13.125 11.8582 13.125 11.375V9.89652C13.394 9.58891 13.5625 9.19105 13.5625 8.75V7.4375C13.5625 6.91195 13.3259 6.44574 12.959 6.125H13.5078C13.6584 6.125 13.7897 6.02246 13.8261 5.87645L13.9901 5.2202C14.0418 5.0132 13.8851 4.8125 13.6716 4.8125ZM4.04495 4.32496C4.24428 3.82676 4.7269 3.5 5.26366 3.5H8.73631C9.27306 3.5 9.75568 3.82676 9.95502 4.32496L10.5 5.6875H3.49999L4.04495 4.32496ZM2.62499 8.74453C2.09999 8.74453 1.74999 8.39562 1.74999 7.87227C1.74999 7.34891 2.09999 7 2.62499 7C3.14999 7 3.93749 7.78504 3.93749 8.3084C3.93749 8.83176 3.14999 8.74453 2.62499 8.74453ZM11.375 8.74453C10.85 8.74453 10.0625 8.83176 10.0625 8.3084C10.0625 7.78504 10.85 7 11.375 7C11.9 7 12.25 7.34891 12.25 7.87227C12.25 8.39562 11.9 8.74453 11.375 8.74453Z" fill="#FEC60A"/>
</g>
<defs>
<clipPath id="clip0_168_4865">
<rect width="14" height="14" fill="white"/>
</clipPath>
</defs>
</svg>
